<svg version="1.1" id="Layer_1" xmlns="http://www.w3.org/2000/svg" xmlns:xlink="http://www.w3.org/1999/xlink" x="0px" y="0px"
	 width="100%" viewBox="0 0 516 97" enable-background="new 0 0 516 97" xml:space="preserve">
<path fill="#FDFEFF" opacity="1.000000" stroke="none" 
	d="
M381.000000,98.000000 
	C254.000015,98.000000 127.500031,98.000000 1.000034,98.000000 
	C1.000023,65.666687 1.000023,33.333370 1.000011,1.000043 
	C172.999954,1.000028 344.999908,1.000028 516.999878,1.000014 
	C516.999939,33.333290 516.999939,65.666580 517.000000,97.999939 
	C471.833344,98.000000 426.666656,98.000000 381.000000,98.000000 
M70.977592,33.212231 
	C73.485046,37.155952 76.949043,40.801388 78.292068,45.108223 
	C80.754143,53.003654 78.182701,60.440876 73.764526,66.201210 
	C76.438484,68.730347 78.747292,70.914108 82.072113,74.058868 
	C84.425331,67.671989 86.857353,61.593441 88.855019,55.375351 
	C89.586571,53.098255 89.647987,50.640285 86.189224,49.476192 
	C84.924881,49.050659 84.396088,46.293449 83.646263,44.550671 
	C83.301323,43.748943 83.523445,42.537960 82.993271,42.006680 
	C77.456680,36.458485 77.398125,35.351219 82.729080,30.525871 
	C74.650589,17.837774 59.158226,12.366561 43.752499,16.761070 
	C28.883156,21.002575 18.425095,34.972446 18.358461,50.682407 
	C18.296968,65.180435 28.385317,79.385902 41.335442,83.370407 
	C42.192642,80.630333 43.047230,77.898605 44.099392,74.535332 
	C42.205452,73.153809 39.762466,71.722321 37.788448,69.807396 
	C36.493484,68.551201 35.876343,66.596268 35.622684,65.129990 
	C37.701218,66.890404 39.779747,68.650818 41.287247,69.927597 
	C45.980194,66.239479 49.736313,62.839005 53.976444,60.223057 
	C55.283562,59.416634 57.924438,60.690098 59.928322,61.130768 
	C60.882282,61.340553 62.154263,62.414291 62.634960,62.101624 
	C66.577362,59.537292 69.526833,61.491875 72.283569,64.151802 
	C79.438614,54.234932 78.645561,44.820267 70.977592,33.212231 
M185.237915,58.363533 
	C183.326904,56.044025 185.081589,54.986748 186.701950,53.677204 
	C191.633759,49.691410 192.873642,44.237434 191.728256,38.390942 
	C190.594940,32.606041 187.067337,27.875393 181.110779,27.124989 
	C171.845123,25.957706 162.435776,25.931002 153.059265,25.419340 
	C153.059265,41.984856 153.059265,57.358208 153.059265,72.741333 
	C157.130554,72.741333 160.832001,72.741333 165.096924,72.741333 
	C165.096924,67.618149 165.096924,62.897606 165.096924,58.508919 
	C171.093155,56.857933 174.906830,58.391628 176.861191,63.989002 
	C177.672302,66.312103 178.929626,68.583214 180.442596,70.519707 
	C181.396088,71.740150 183.118927,72.793770 184.639282,73.039391 
	C187.175491,73.449112 189.826035,73.151176 193.246353,73.151176 
	C190.453598,67.959213 188.037476,63.467430 185.237915,58.363533 
M380.872223,31.496208 
	C380.872223,33.942261 380.872223,36.388309 380.872223,39.027916 
	C379.666992,38.937584 379.010742,38.949718 378.381989,38.824272 
	C377.735077,38.695194 377.128967,38.347866 376.481018,38.240185 
	C368.855804,36.972958 362.230591,38.699818 357.378845,45.056679 
	C353.169220,50.572178 352.540588,56.702534 355.536652,62.894550 
	C358.991180,70.034088 365.000214,73.271912 372.900391,73.158333 
	C377.435944,73.093124 381.973602,73.182297 386.509613,73.135086 
	C387.759491,73.122063 389.006805,72.868645 390.254059,72.725677 
	C390.254059,56.960602 390.254059,41.585182 390.254059,26.047773 
	C387.076233,26.047773 384.300446,26.047773 381.177582,26.047773 
	C381.067810,27.664131 380.969910,29.105576 380.872223,31.496208 
M205.211044,69.425842 
	C214.427551,76.323250 224.904007,70.888611 234.648865,73.404099 
	C234.648865,61.048332 234.648865,49.664253 234.648865,38.262508 
	C229.946655,38.262508 225.510681,38.826580 221.275055,38.145145 
	C212.442596,36.724159 204.389984,39.962742 200.397064,47.303394 
	C196.388733,54.672443 197.826614,62.010887 205.211044,69.425842 
M421.475403,59.159939 
	C424.738464,59.159939 428.001495,59.159939 431.100250,59.159939 
	C432.976746,48.855026 426.502747,39.862228 416.637573,38.151112 
	C406.889130,36.460243 397.329437,43.174011 395.657501,52.885502 
	C394.021973,62.385372 400.778290,71.366226 410.734100,72.926132 
	C419.373749,74.279839 428.363281,68.949417 429.745911,60.557495 
	C425.090393,61.506870 420.781281,62.141232 416.619385,63.303070 
	C412.460999,64.463921 409.413757,63.545372 406.292633,59.160080 
	C411.656647,59.160080 416.073090,59.160080 421.475403,59.159939 
M341.561279,61.356640 
	C339.025269,61.948589 336.409302,62.315517 333.970856,63.182030 
	C329.663879,64.712547 326.378082,63.616901 324.154755,59.158375 
	C327.818970,59.158375 331.267487,59.157974 334.716003,59.158482 
	C338.213837,59.158997 341.719025,59.020817 345.207214,59.204670 
	C348.105896,59.357452 348.968658,58.139069 348.909180,55.392826 
	C348.725830,46.923889 341.663513,39.121971 333.045380,38.081532 
	C324.172821,37.010376 315.020599,42.985111 313.056305,51.130749 
	C310.920532,59.987377 315.271942,68.408455 323.739166,71.804909 
	C333.249573,75.619820 344.488586,70.804703 346.799988,61.631344 
	C345.298737,61.537529 343.855591,61.447346 341.561279,61.356640 
M297.038483,43.498978 
	C295.395386,45.246529 293.752289,46.994080 291.040741,49.878029 
	C291.040741,40.898438 291.040741,33.534763 291.040741,26.172621 
	C287.694305,26.172621 284.951172,26.172621 282.022156,26.172621 
	C282.022156,41.882881 282.022156,57.269299 282.022156,72.770248 
	C285.233795,72.770248 288.114227,72.770248 290.977509,72.770248 
	C291.276520,68.928238 291.545685,65.469810 291.814819,62.011387 
	C292.297363,61.936764 292.779877,61.862141 293.262390,61.787521 
	C295.730225,65.044334 297.596832,69.267723 300.836884,71.283058 
	C304.006378,73.254524 308.576080,72.974899 312.531158,73.683365 
	C312.697723,73.193298 312.864319,72.703232 313.030884,72.213173 
	C308.603241,66.116188 304.175598,60.019203 299.778503,53.964291 
	C304.729156,48.621475 309.294098,43.694958 314.439484,38.141968 
	C307.546234,38.024799 301.342804,36.412262 297.038483,43.498978 
M261.060242,37.977539 
	C254.105057,37.977539 247.149887,37.977539 240.317490,37.977539 
	C240.317490,50.142536 240.317490,61.537407 240.317490,72.783737 
	C243.624466,72.783737 246.539337,72.783737 249.846130,72.783737 
	C249.846130,66.954140 249.493851,61.455875 250.002335,56.038399 
	C250.238434,53.522858 251.528427,50.389572 253.415543,48.880352 
	C259.025085,44.394150 266.392090,48.335186 266.798401,55.904869 
	C267.098450,61.495007 266.857361,67.114189 266.857361,72.887527 
	C270.423889,72.887527 273.335876,72.887527 276.818237,72.887527 
	C276.818237,67.681183 276.848938,62.732338 276.811890,57.783997 
	C276.733521,47.321045 272.064972,41.157478 261.060242,37.977539 
M485.224274,41.565098 
	C484.477203,42.225876 483.677551,42.836460 482.991150,43.555199 
	C476.108368,50.762390 476.373840,61.244617 483.591309,68.037804 
	C491.279633,75.274246 502.581909,74.763664 509.836914,66.852104 
	C516.361816,59.736744 515.574890,48.975677 508.050140,42.419212 
	C501.831726,37.000973 494.702393,36.587753 485.224274,41.565098 
M461.919525,50.755733 
	C465.342865,51.606052 468.766235,52.456367 472.692841,53.431694 
	C470.665771,42.432426 462.213318,36.639042 451.870544,37.986088 
	C442.562775,39.198338 435.963257,47.904430 436.897949,57.737957 
	C437.721588,66.402992 446.288116,73.496368 455.436401,73.088417 
	C465.008759,72.661552 472.502655,65.751411 472.529633,57.119560 
	C468.100586,57.094650 463.723206,55.676361 460.505585,61.104408 
	C459.431274,62.916752 454.517731,63.374878 451.587860,62.933674 
	C447.882599,62.375698 446.045288,58.716606 446.862518,55.275654 
	C447.503113,52.578445 449.448730,49.556686 451.721893,48.031200 
	C455.086914,45.772995 458.754883,46.898254 461.919525,50.755733 
M97.092743,74.879837 
	C98.376556,75.541405 99.660370,76.202972 100.944176,76.864548 
	C101.523354,75.418808 102.591629,73.977745 102.605499,72.526604 
	C102.734154,59.069031 102.701576,45.609676 102.665215,32.150970 
	C102.657043,29.126421 101.935547,26.093510 98.257248,26.132374 
	C94.572334,26.171309 94.014076,29.151733 94.029785,32.231426 
	C94.065392,39.209885 94.032005,46.188671 94.048538,53.167271 
	C94.050880,54.154175 93.852814,55.812119 94.293526,56.024055 
	C98.875359,58.227455 96.538277,62.280926 96.908531,65.516228 
	C97.227722,68.305328 96.991074,71.158035 97.092743,74.879837 
M128.862427,20.500622 
	C128.862427,45.911644 128.862427,71.322670 128.862427,96.733696 
	C129.514557,96.952637 130.166687,97.171585 130.818832,97.390526 
	C131.510223,96.003571 132.785889,94.623413 132.802124,93.228584 
	C132.955170,80.082024 132.893372,66.932945 132.893509,53.784599 
	C132.893677,37.806858 132.888885,21.829113 132.899109,5.851377 
	C132.900711,3.358520 132.996109,0.837148 128.862366,2.788917 
	C128.862366,8.235495 128.862366,13.868391 128.862427,20.500622 
M1.989553,31.724104 
	C1.987227,34.720894 1.820287,37.730415 2.050728,40.709198 
	C2.169266,42.241486 2.974479,43.726681 3.508289,45.219242 
	C4.133719,46.967983 5.312018,48.687004 5.362200,50.444286 
	C5.575973,57.930325 5.328675,65.430290 5.584991,72.913681 
	C5.632994,74.315155 7.216691,75.664024 8.091706,77.037170 
	C9.067781,75.632133 10.834818,74.256203 10.887774,72.817200 
	C11.169227,65.169029 10.987531,57.504745 11.054943,49.846825 
	C11.065886,48.603745 11.103673,46.978298 11.837523,46.184830 
	C17.608683,39.944817 13.463125,32.991436 13.723927,26.370655 
	C12.711510,27.855045 12.677814,29.438227 12.402026,30.978046 
	C11.971909,33.379536 11.377576,35.751614 10.852826,38.136154 
	C10.263793,35.678852 9.599050,33.236340 9.114960,30.758532 
	C8.837639,29.339075 8.853871,27.862268 8.737944,26.411282 
	C8.208779,26.445520 7.679614,26.479759 7.150449,26.513998 
	C7.150449,29.401773 7.295083,32.300697 7.073817,35.171421 
	C6.993872,36.208652 6.036694,37.178272 5.479816,38.178745 
	C4.990931,37.126446 4.155490,36.098232 4.080349,35.017174 
	C3.881923,32.162426 4.013160,29.284767 4.013160,26.416227 
	C3.421201,26.433552 2.829242,26.450874 2.237283,26.468197 
	C2.154727,27.912071 2.072170,29.355946 1.989553,31.724104 
z"/>
<path fill="#3A93DF" opacity="1.000000" stroke="none" 
	d="
M34.955635,64.954269 
	C35.876343,66.596268 36.493484,68.551201 37.788448,69.807396 
	C39.762466,71.722321 42.205452,73.153809 44.099392,74.535332 
	C43.047230,77.898605 42.192642,80.630333 41.335442,83.370407 
	C28.385317,79.385902 18.296968,65.180435 18.358461,50.682407 
	C18.425095,34.972446 28.883156,21.002575 43.752499,16.761070 
	C59.158226,12.366561 74.650589,17.837774 82.729080,30.525871 
	C77.398125,35.351219 77.456680,36.458485 82.993271,42.006680 
	C83.523445,42.537960 83.301323,43.748943 83.646263,44.550671 
	C84.396088,46.293449 84.924881,49.050659 86.189224,49.476192 
	C89.647987,50.640285 89.586571,53.098255 88.855019,55.375351 
	C86.857353,61.593441 84.425331,67.671989 82.072113,74.058868 
	C78.747292,70.914108 76.438484,68.730347 73.764526,66.201210 
	C78.182701,60.440876 80.754143,53.003654 78.292068,45.108223 
	C76.949043,40.801388 73.485046,37.155952 70.426880,33.313705 
	C69.585762,33.125740 69.295372,32.836296 69.346573,32.244213 
	C69.234840,31.275656 68.909180,30.451296 68.308968,29.967663 
	C59.775692,23.091850 45.337673,24.049940 36.704586,32.019199 
	C28.214443,39.856510 26.097174,54.531525 32.277309,63.432655 
	C32.823013,64.218620 34.101948,64.495499 35.013889,65.003357 
	C34.987453,64.997887 34.955635,64.954269 34.955635,64.954269 
z"/>
<path fill="#3792DE" opacity="1.000000" stroke="none" 
	d="
M69.004974,32.546852 
	C69.295372,32.836296 69.585762,33.125740 69.879837,33.423214 
	C78.645561,44.820267 79.438614,54.234932 72.283569,64.151802 
	C69.526833,61.491875 66.577362,59.537292 62.634960,62.101624 
	C62.154263,62.414291 60.882282,61.340553 59.928322,61.130768 
	C57.924438,60.690098 55.283562,59.416634 53.976444,60.223057 
	C49.736313,62.839005 45.980194,66.239479 41.287247,69.927597 
	C39.779747,68.650818 37.701218,66.890404 35.289162,65.042130 
	C34.955635,64.954269 34.987453,64.997887 34.973488,64.644089 
	C25.788506,50.674065 32.378616,32.790752 47.385113,28.481998 
	C55.339596,26.198061 62.404308,27.971437 69.004974,32.546852 
z"/>
<path fill="#3792DE" opacity="1.000000" stroke="none" 
	d="
M185.429626,58.669594 
	C188.037476,63.467430 190.453598,67.959213 193.246353,73.151176 
	C189.826035,73.151176 187.175491,73.449112 184.639282,73.039391 
	C183.118927,72.793770 181.396088,71.740150 180.442596,70.519707 
	C178.929626,68.583214 177.672302,66.312103 176.861191,63.989002 
	C174.906830,58.391628 171.093155,56.857933 165.096924,58.508919 
	C165.096924,62.897606 165.096924,67.618149 165.096924,72.741333 
	C160.832001,72.741333 157.130554,72.741333 153.059265,72.741333 
	C153.059265,57.358208 153.059265,41.984856 153.059265,25.419340 
	C162.435776,25.931002 171.845123,25.957706 181.110779,27.124989 
	C187.067337,27.875393 190.594940,32.606041 191.728256,38.390942 
	C192.873642,44.237434 191.633759,49.691410 186.701950,53.677204 
	C185.081589,54.986748 183.326904,56.044025 185.429626,58.669594 
M165.699921,47.939369 
	C168.341553,47.982010 170.984848,48.103359 173.624435,48.048283 
	C177.307556,47.971447 179.603912,46.105820 179.848038,42.358929 
	C180.106583,38.391396 177.880539,36.041870 174.117859,35.562584 
	C171.233917,35.195236 168.265717,35.489491 165.043304,35.489491 
	C165.043304,39.724758 165.043304,43.488060 165.699921,47.939369 
z"/>
<path fill="#3993DF" opacity="1.000000" stroke="none" 
	d="
M380.872131,31.021614 
	C380.969910,29.105576 381.067810,27.664131 381.177582,26.047773 
	C384.300446,26.047773 387.076233,26.047773 390.254059,26.047773 
	C390.254059,41.585182 390.254059,56.960602 390.254059,72.725677 
	C389.006805,72.868645 387.759491,73.122063 386.509613,73.135086 
	C381.973602,73.182297 377.435944,73.093124 372.900391,73.158333 
	C365.000214,73.271912 358.991180,70.034088 355.536652,62.894550 
	C352.540588,56.702534 353.169220,50.572178 357.378845,45.056679 
	C362.230591,38.699818 368.855804,36.972958 376.481018,38.240185 
	C377.128967,38.347866 377.735077,38.695194 378.381989,38.824272 
	C379.010742,38.949718 379.666992,38.937584 380.872223,39.027916 
	C380.872223,36.388309 380.872223,33.942261 380.872131,31.021614 
M364.221863,58.715218 
	C365.984650,62.457531 369.130402,64.752480 372.997467,63.685780 
	C375.670471,62.948441 379.101074,60.601395 379.805389,58.256474 
	C380.574890,55.694641 379.353119,51.738438 377.620758,49.420040 
	C375.381256,46.422798 371.518433,46.294384 368.043640,48.131660 
	C364.032684,50.252426 363.234344,53.787632 364.221863,58.715218 
z"/>
<path fill="#3892DF" opacity="1.000000" stroke="none" 
	d="
M204.925476,69.191528 
	C197.826614,62.010887 196.388733,54.672443 200.397064,47.303394 
	C204.389984,39.962742 212.442596,36.724159 221.275055,38.145145 
	C225.510681,38.826580 229.946655,38.262508 234.648865,38.262508 
	C234.648865,49.664253 234.648865,61.048332 234.648865,73.404099 
	C224.904007,70.888611 214.427551,76.323250 204.925476,69.191528 
M219.651108,47.522499 
	C211.851334,46.345928 206.294189,51.573689 208.529221,58.021740 
	C209.812973,61.725391 212.571671,63.823303 216.393906,63.895576 
	C220.434738,63.971989 223.582520,61.873062 224.728088,57.974850 
	C226.000626,53.644630 224.316818,50.154106 219.651108,47.522499 
z"/>
<path fill="#3A94DF" opacity="1.000000" stroke="none" 
	d="
M420.982483,59.160011 
	C416.073090,59.160080 411.656647,59.160080 406.292633,59.160080 
	C409.413757,63.545372 412.460999,64.463921 416.619385,63.303070 
	C420.781281,62.141232 425.090393,61.506870 429.745911,60.557495 
	C428.363281,68.949417 419.373749,74.279839 410.734100,72.926132 
	C400.778290,71.366226 394.021973,62.385372 395.657501,52.885502 
	C397.329437,43.174011 406.889130,36.460243 416.637573,38.151112 
	C426.502747,39.862228 432.976746,48.855026 431.100250,59.159939 
	C428.001495,59.159939 424.738464,59.159939 420.982483,59.160011 
M408.623901,48.955696 
	C407.906281,49.808865 407.188629,50.662029 406.207031,51.829025 
	C411.496094,51.829025 415.981049,51.829025 421.289062,51.829025 
	C417.516418,47.478985 413.954132,45.829464 408.623901,48.955696 
z"/>
<path fill="#3A93DF" opacity="1.000000" stroke="none" 
	d="
M341.986877,61.356899 
	C343.855591,61.447346 345.298737,61.537529 346.799988,61.631344 
	C344.488586,70.804703 333.249573,75.619820 323.739166,71.804909 
	C315.271942,68.408455 310.920532,59.987377 313.056305,51.130749 
	C315.020599,42.985111 324.172821,37.010376 333.045380,38.081532 
	C341.663513,39.121971 348.725830,46.923889 348.909180,55.392826 
	C348.968658,58.139069 348.105896,59.357452 345.207214,59.204670 
	C341.719025,59.020817 338.213837,59.158997 334.716003,59.158482 
	C331.267487,59.157974 327.818970,59.158375 324.154755,59.158375 
	C326.378082,63.616901 329.663879,64.712547 333.970856,63.182030 
	C336.409302,62.315517 339.025269,61.948589 341.986877,61.356899 
M334.193207,48.081902 
	C329.751709,46.176205 326.478424,47.478977 323.228973,51.927574 
	C328.660278,51.927574 333.054840,51.927574 337.449402,51.927574 
	C337.708191,51.621750 337.966980,51.315926 338.225769,51.010098 
	C337.107361,50.158127 335.988953,49.306152 334.193207,48.081902 
z"/>
<path fill="#3691DE" opacity="1.000000" stroke="none" 
	d="
M297.290283,43.240807 
	C301.342804,36.412262 307.546234,38.024799 314.439484,38.141968 
	C309.294098,43.694958 304.729156,48.621475 299.778503,53.964291 
	C304.175598,60.019203 308.603241,66.116188 313.030884,72.213173 
	C312.864319,72.703232 312.697723,73.193298 312.531158,73.683365 
	C308.576080,72.974899 304.006378,73.254524 300.836884,71.283058 
	C297.596832,69.267723 295.730225,65.044334 293.262390,61.787521 
	C292.779877,61.862141 292.297363,61.936764 291.814819,62.011387 
	C291.545685,65.469810 291.276520,68.928238 290.977509,72.770248 
	C288.114227,72.770248 285.233795,72.770248 282.022156,72.770248 
	C282.022156,57.269299 282.022156,41.882881 282.022156,26.172621 
	C284.951172,26.172621 287.694305,26.172621 291.040741,26.172621 
	C291.040741,33.534763 291.040741,40.898438 291.040741,49.878029 
	C293.752289,46.994080 295.395386,45.246529 297.290283,43.240807 
z"/>
<path fill="#3993DF" opacity="1.000000" stroke="none" 
	d="
M261.487366,38.011681 
	C272.064972,41.157478 276.733521,47.321045 276.811890,57.783997 
	C276.848938,62.732338 276.818237,67.681183 276.818237,72.887527 
	C273.335876,72.887527 270.423889,72.887527 266.857361,72.887527 
	C266.857361,67.114189 267.098450,61.495007 266.798401,55.904869 
	C266.392090,48.335186 259.025085,44.394150 253.415543,48.880352 
	C251.528427,50.389572 250.238434,53.522858 250.002335,56.038399 
	C249.493851,61.455875 249.846130,66.954140 249.846130,72.783737 
	C246.539337,72.783737 243.624466,72.783737 240.317490,72.783737 
	C240.317490,61.537407 240.317490,50.142536 240.317490,37.977539 
	C247.149887,37.977539 254.105057,37.977539 261.487366,38.011681 
z"/>
<path fill="#3892DF" opacity="1.000000" stroke="none" 
	d="
M485.525696,41.348129 
	C494.702393,36.587753 501.831726,37.000973 508.050140,42.419212 
	C515.574890,48.975677 516.361816,59.736744 509.836914,66.852104 
	C502.581909,74.763664 491.279633,75.274246 483.591309,68.037804 
	C476.373840,61.244617 476.108368,50.762390 482.991150,43.555199 
	C483.677551,42.836460 484.477203,42.225876 485.525696,41.348129 
M489.630920,50.329891 
	C487.129486,53.875721 486.780548,57.898251 489.837067,60.762463 
	C491.806519,62.608028 495.759338,64.060410 498.090179,63.334641 
	C500.657776,62.535126 503.604797,59.277790 504.117584,56.648590 
	C504.577881,54.288635 502.603607,50.590168 500.552490,48.802628 
	C497.322357,45.987518 493.419556,47.012302 489.630920,50.329891 
z"/>
<path fill="#3993DF" opacity="1.000000" stroke="none" 
	d="
M461.701904,50.436413 
	C458.754883,46.898254 455.086914,45.772995 451.721893,48.031200 
	C449.448730,49.556686 447.503113,52.578445 446.862518,55.275654 
	C446.045288,58.716606 447.882599,62.375698 451.587860,62.933674 
	C454.517731,63.374878 459.431274,62.916752 460.505585,61.104408 
	C463.723206,55.676361 468.100586,57.094650 472.529633,57.119560 
	C472.502655,65.751411 465.008759,72.661552 455.436401,73.088417 
	C446.288116,73.496368 437.721588,66.402992 436.897949,57.737957 
	C435.963257,47.904430 442.562775,39.198338 451.870544,37.986088 
	C462.213318,36.639042 470.665771,42.432426 472.692841,53.431694 
	C468.766235,52.456367 465.342865,51.606052 461.701904,50.436413 
z"/>
<path fill="#4298E0" opacity="1.000000" stroke="none" 
	d="
M97.046463,74.431229 
	C96.991074,71.158035 97.227722,68.305328 96.908531,65.516228 
	C96.538277,62.280926 98.875359,58.227455 94.293526,56.024055 
	C93.852814,55.812119 94.050880,54.154175 94.048538,53.167271 
	C94.032005,46.188671 94.065392,39.209885 94.029785,32.231426 
	C94.014076,29.151733 94.572334,26.171309 98.257248,26.132374 
	C101.935547,26.093510 102.657043,29.126421 102.665215,32.150970 
	C102.701576,45.609676 102.734154,59.069031 102.605499,72.526604 
	C102.591629,73.977745 101.523354,75.418808 100.944183,76.864548 
	C99.660370,76.202972 98.376556,75.541405 97.046463,74.431229 
z"/>
<path fill="#4097E0" opacity="1.000000" stroke="none" 
	d="
M128.862396,20.000954 
	C128.862366,13.868391 128.862366,8.235495 128.862366,2.788917 
	C132.996109,0.837148 132.900711,3.358520 132.899109,5.851377 
	C132.888885,21.829113 132.893677,37.806858 132.893509,53.784599 
	C132.893372,66.932945 132.955170,80.082024 132.802124,93.228584 
	C132.785889,94.623413 131.510223,96.003571 130.818832,97.390526 
	C130.166687,97.171585 129.514557,96.952637 128.862427,96.733696 
	C128.862427,71.322670 128.862427,45.911644 128.862396,20.000954 
z"/>
<path fill="#3F96E0" opacity="1.000000" stroke="none" 
	d="
M1.989583,31.261963 
	C2.072170,29.355946 2.154727,27.912071 2.237283,26.468197 
	C2.829242,26.450874 3.421201,26.433552 4.013160,26.416227 
	C4.013160,29.284767 3.881923,32.162426 4.080349,35.017174 
	C4.155490,36.098232 4.990931,37.126446 5.479816,38.178745 
	C6.036694,37.178272 6.993872,36.208652 7.073817,35.171421 
	C7.295083,32.300697 7.150449,29.401773 7.150449,26.513998 
	C7.679614,26.479759 8.208779,26.445520 8.737944,26.411282 
	C8.853871,27.862268 8.837639,29.339075 9.114960,30.758532 
	C9.599050,33.236340 10.263793,35.678852 10.852827,38.136154 
	C11.377576,35.751614 11.971909,33.379536 12.402026,30.978046 
	C12.677814,29.438227 12.711510,27.855045 13.723927,26.370655 
	C13.463125,32.991436 17.608683,39.944817 11.837523,46.184830 
	C11.103673,46.978298 11.065886,48.603745 11.054943,49.846825 
	C10.987531,57.504745 11.169227,65.169029 10.887774,72.817200 
	C10.834818,74.256203 9.067781,75.632133 8.091705,77.037170 
	C7.216691,75.664024 5.632994,74.315155 5.584991,72.913681 
	C5.328675,65.430290 5.575973,57.930325 5.362200,50.444286 
	C5.312018,48.687004 4.133719,46.967983 3.508289,45.219242 
	C2.974479,43.726681 2.169266,42.241486 2.050728,40.709198 
	C1.820287,37.730415 1.987227,34.720894 1.989583,31.261963 
z"/>
<path fill="#FDFEFF" opacity="1.000000" stroke="none" 
	d="
M69.346573,32.244213 
	C62.404308,27.971437 55.339596,26.198061 47.385113,28.481998 
	C32.378616,32.790752 25.788506,50.674065 34.999924,64.649559 
	C34.101948,64.495499 32.823013,64.218620 32.277309,63.432655 
	C26.097174,54.531525 28.214443,39.856510 36.704586,32.019199 
	C45.337673,24.049940 59.775692,23.091850 68.308968,29.967663 
	C68.909180,30.451296 69.234840,31.275656 69.346573,32.244213 
z"/>
<path fill="#F8FBFE" opacity="1.000000" stroke="none" 
	d="
M165.371613,47.595364 
	C165.043304,43.488060 165.043304,39.724758 165.043304,35.489491 
	C168.265717,35.489491 171.233917,35.195236 174.117859,35.562584 
	C177.880539,36.041870 180.106583,38.391396 179.848038,42.358929 
	C179.603912,46.105820 177.307556,47.971447 173.624435,48.048283 
	C170.984848,48.103359 168.341553,47.982010 165.371613,47.595364 
z"/>
<path fill="#F9FCFE" opacity="1.000000" stroke="none" 
	d="
M364.109192,58.320396 
	C363.234344,53.787632 364.032684,50.252426 368.043640,48.131660 
	C371.518433,46.294384 375.381256,46.422798 377.620758,49.420040 
	C379.353119,51.738438 380.574890,55.694641 379.805389,58.256474 
	C379.101074,60.601395 375.670471,62.948441 372.997467,63.685780 
	C369.130402,64.752480 365.984650,62.457531 364.109192,58.320396 
z"/>
<path fill="#FAFCFE" opacity="1.000000" stroke="none" 
	d="
M219.997223,47.699345 
	C224.316818,50.154106 226.000626,53.644630 224.728088,57.974850 
	C223.582520,61.873062 220.434738,63.971989 216.393906,63.895576 
	C212.571671,63.823303 209.812973,61.725391 208.529221,58.021740 
	C206.294189,51.573689 211.851334,46.345928 219.997223,47.699345 
z"/>
<path fill="#F3F8FD" opacity="1.000000" stroke="none" 
	d="
M408.931213,48.740829 
	C413.954132,45.829464 417.516418,47.478985 421.289062,51.829025 
	C415.981049,51.829025 411.496094,51.829025 406.207031,51.829025 
	C407.188629,50.662029 407.906281,49.808865 408.931213,48.740829 
z"/>
<path fill="#F3F8FD" opacity="1.000000" stroke="none" 
	d="
M334.531891,48.268040 
	C335.988953,49.306152 337.107361,50.158127 338.225769,51.010098 
	C337.966980,51.315926 337.708191,51.621750 337.449402,51.927574 
	C333.054840,51.927574 328.660278,51.927574 323.228973,51.927574 
	C326.478424,47.478977 329.751709,46.176205 334.531891,48.268040 
z"/>
<path fill="#F8FBFE" opacity="1.000000" stroke="none" 
	d="
M489.895325,50.045101 
	C493.419556,47.012302 497.322357,45.987518 500.552490,48.802628 
	C502.603607,50.590168 504.577881,54.288635 504.117584,56.648590 
	C503.604797,59.277790 500.657776,62.535126 498.090179,63.334641 
	C495.759338,64.060410 491.806519,62.608028 489.837067,60.762463 
	C486.780548,57.898251 487.129486,53.875721 489.895325,50.045101 
z"/>
</svg>